<svg id="Icons" enable-background="new 0 0 512 512" height="512" viewBox="0 0 512 512" width="512" xmlns="http://www.w3.org/2000/svg"><g><circle cx="256" cy="256" fill="transparent" r="256"/><g><g fill="#4fcae8"><path d="m348.855 270.896h-65.277v-91.791c0-1.933-1.567-3.5-3.5-3.5s-3.5 1.567-3.5 3.5v187.4c0 1.933 1.567 3.5 3.5 3.5s3.5-1.567 3.5-3.5v-88.609h65.277c1.933 0 3.5-1.567 3.5-3.5s-1.567-3.5-3.5-3.5z"/><path d="m414.093 316.41c-1.933 0-3.5 1.567-3.5 3.5v65.797c0 1.933 1.567 3.5 3.5 3.5s3.5-1.567 3.5-3.5v-65.797c0-1.932-1.568-3.5-3.5-3.5z"/><path d="m165.651 257.322h29.401c23.298 0 42.252-18.954 42.252-42.252v-51.826c0-1.933-1.567-3.5-3.5-3.5s-3.5 1.567-3.5 3.5v51.826c0 19.438-15.813 35.252-35.252 35.252h-29.401c-1.933 0-3.5 1.567-3.5 3.5s1.568 3.5 3.5 3.5z"/><path d="m280.892 414.448h-107.542c-19.796 0-36.197-14.772-38.785-33.871h55.693c15.62 0 28.327-12.707 28.327-28.327v-39.692c0-1.933-1.567-3.5-3.5-3.5s-3.5 1.567-3.5 3.5v39.692c0 11.76-9.567 21.327-21.327 21.327h-56.06v-58.24c0-1.933-1.567-3.5-3.5-3.5s-3.5 1.567-3.5 3.5v58.24h-49.274c-1.933 0-3.5 1.567-3.5 3.5s1.567 3.5 3.5 3.5h49.586c2.63 22.969 22.179 40.871 45.84 40.871h107.542c1.933 0 3.5-1.567 3.5-3.5s-1.568-3.5-3.5-3.5z"/><path d="m74.593 164.013c0-1.933-1.567-3.5-3.5-3.5s-3.5 1.567-3.5 3.5v76.605c0 1.933 1.567 3.5 3.5 3.5s3.5-1.567 3.5-3.5z"/></g><g fill="#cde6f6"><circle cx="71.093" cy="164.013" r="18.794"/><circle cx="215.085" cy="312.558" r="18.794"/><circle cx="77.924" cy="377.077" r="18.794"/><circle cx="414.093" cy="385.707" r="18.794"/></g></g><g><g><path d="m372.098 80.066c-8.247-9.195-20.278-14.984-33.602-14.984-6.3 0-12.297 1.29-17.741 3.638-4.021 1.718-7.734 4.015-11.057 6.772-.39-10.11-3.092-19.622-7.58-28.039l4.959.927-14.638-14.553c-1.267-1.372-2.592-2.689-3.971-3.948l-.09-.09.001.008c-11.917-10.838-27.859-17.328-45.327-16.946-34.806.761-63.17 29.269-63.767 64.079-.004.229-.007.458-.008.686-.065 9.512-7.53 17.305-17.036 17.625-.282.009-.564.022-.847.036-22.634 1.177-41.1 19.38-42.563 41.997-1.136 17.573 7.81 33.158 21.621 41.535 6.803 4.128 14.789 6.507 23.336 6.507h236.102c18.008 0 33.145-14.271 33.375-32.278.07-5.445-1.19-10.586-3.477-15.123-5.381-10.686-16.451-18.011-29.232-18.011-.541 0-1.076.013-1.611.044-7.03.34-13.474 2.901-18.653 6.998 2.096-5.198 3.26-10.869 3.26-16.816 0-6.32-1.305-12.335-3.656-17.795l5.118.638z" fill="#fdfcfd"/></g><g><path d="m433.213 154.506c-.981 17.413-15.852 30.81-33.293 30.81h-236.133c-8.546 0-16.533-2.379-23.336-6.507-4.332-7.127-6.736-15.553-6.497-24.562.624-23.523 19.673-42.845 43.185-43.79.298-.012.596-.021.893-.027 9.658-.202 17.24-8.06 17.467-17.717.017-.713.045-1.428.085-2.145 1.823-32.776 28.248-59.382 61.012-61.399 15.441-.951 29.819 3.474 41.434 11.597 9.975 6.954 17.904 16.633 22.725 27.955.029.069.059.138.088.207 4.057 9.597 14.22 14.918 24.43 12.842 2.91-.592 5.922-.903 9.007-.903 8.395 0 16.249 2.297 22.977 6.293 11.599 6.885 19.837 18.83 21.687 32.788.258 1.951.39 3.946.39 5.972 0 .132-.001.263-.002.395-.047 5.462 4.819 9.518 10.203 8.592 1.806-.31 3.662-.472 5.558-.472 5.286 0 10.277 1.252 14.695 3.48 2.491 4.943 3.762 10.602 3.425 16.591z" fill="#f7f2f4"/></g><g><g><path d="m303.333 92.564c-4.312 0-8.507-2.233-10.826-6.232-4.961-8.557-12.957-14.669-22.515-17.211-9.558-2.546-19.535-1.212-28.091 3.75-5.973 3.463-13.621 1.428-17.084-4.544-3.462-5.972-1.428-13.62 4.544-17.083 14.333-8.31 31.045-10.54 47.057-6.283 16.012 4.259 29.406 14.498 37.717 28.832 3.462 5.972 1.428 13.621-4.544 17.083-1.974 1.144-4.131 1.688-6.258 1.688z" fill="#fff"/></g><g><path d="m234.463 158.246c-3.095 0-6.194-1.142-8.613-3.443-5.002-4.758-5.2-12.67-.441-17.672 11.419-12.005 26.83-18.844 43.393-19.258 16.572-.383 32.297 5.647 44.301 17.067 5.001 4.758 5.199 12.67.441 17.672-4.757 5.003-12.67 5.2-17.672.441-7.166-6.817-16.562-10.438-26.445-10.188-9.888.247-19.087 4.33-25.904 11.496-2.458 2.583-5.756 3.885-9.06 3.885z" fill="#fff"/></g><g><path d="m379.376 141.682c-5.533 0-10.591-3.701-12.075-9.302-2.728-10.298-12.764-16.606-22.378-14.06-6.672 1.767-13.516-2.209-15.284-8.883-1.768-6.673 2.209-13.516 8.883-15.283 22.932-6.078 46.687 8.2 52.945 31.823 1.768 6.673-2.208 13.517-8.882 15.284-1.072.285-2.15.421-3.209.421z" fill="#fff"/></g><g><path d="m157.533 172.648c-.324 0-.649-.013-.977-.038-6.883-.532-12.031-6.543-11.5-13.426.893-11.558 6.393-22.035 15.486-29.503 8.941-7.343 20.312-10.889 32.02-9.984 6.883.532 12.032 6.543 11.5 13.427-.532 6.883-6.539 12.041-13.426 11.499-5.246-.403-10.295 1.15-14.227 4.379-3.78 3.104-6.063 7.405-6.426 12.108-.508 6.555-5.984 11.537-12.45 11.538z" fill="#fff"/></g></g></g><g><g><g><g><path d="m417.581 213.307h-29.964c-17.275 0-32.52 8.7-41.586 21.958-5.526 8.081-8.76 17.856-8.76 28.383v27.889c0 27.803 22.539 50.341 50.346 50.341h29.964z" fill="#f39e22"/><g><path d="m337.27 270.744h53.083v13.698h-53.083z" fill="#ea792e"/><path d="m337.27 270.744h53.083v5.377h-53.083z" fill="#dd5e26"/></g><g><path d="m390.353 293.043v13.693h-50.743c-.854-2.682-1.481-5.461-1.868-8.321-.245-1.761-.396-3.553-.445-5.372z" fill="#ea792e"/><path d="m390.353 293.043v5.372h-52.611c-.245-1.761-.396-3.553-.445-5.372z" fill="#dd5e26"/></g><g><path d="m403.255 315.337v13.698h-49.227c-2.78-2.486-5.279-5.279-7.445-8.325-1.223-1.712-2.339-3.509-3.34-5.372h60.012z" fill="#ea792e"/><path d="m403.255 315.337v5.372h-56.672c-1.223-1.712-2.339-3.509-3.34-5.372z" fill="#dd5e26"/></g><g><path d="m411.856 337.636v4.243h-24.238c-7.209 0-14.058-1.512-20.257-4.243z" fill="#ea792e"/><path d="m411.856 337.636v4.243h-24.238c-7.209 0-14.058-1.512-20.257-4.243z" fill="#dd5e26"/></g><g><path d="m390.353 248.45v13.693h-53.061c.085-2.842.4-5.617.938-8.321.116-.587.24-1.17.382-1.752l.996-3.62z" fill="#ea792e"/><path d="m390.353 248.45v5.372h-52.122c.116-.587.24-1.17.382-1.752l.996-3.62z" fill="#dd5e26"/></g><g><path d="m403.74 226.151v13.698h-60.501c.849-1.583 1.783-3.113 2.793-4.585.885-1.29 1.828-2.539 2.824-3.74 1.588-1.917 3.318-3.713 5.172-5.372h49.712z" fill="#ea792e"/><path d="m403.74 226.151v5.372h-54.884c1.588-1.917 3.318-3.713 5.172-5.372z" fill="#dd5e26"/></g><g><path d="m414.093 215.371v2.179h-46.732c6.195-2.731 13.048-4.243 20.257-4.243h12.172c4.968.001 9.771.721 14.303 2.064z" fill="#ea792e"/></g></g><path d="m470.887 263.649v27.889c0 4.24-.525 8.356-1.514 12.291-5.483 21.859-25.265 38.051-48.832 38.051h-12.175c-27.807 0-50.346-22.539-50.346-50.341v-27.889c0-10.528 3.234-20.303 8.76-28.383 9.065-13.258 24.311-21.958 41.586-21.958h12.175c27.808-.002 50.346 22.537 50.346 50.34z" fill="#f9c744"/><path d="m470.887 263.649v27.889c0 4.24-.525 8.356-1.514 12.291-7.431 2.537-15.318 3.901-23.489 3.901-39.048 0-71.62-31.118-79.103-72.463 9.065-13.258 24.311-21.958 41.586-21.958h12.175c27.807-.002 50.345 22.537 50.345 50.34z" fill="#fad98f"/><path d="m434.713 237.723c-3.025 1.91-3.929 5.91-2.02 8.935l11.364 18.002c1.91 3.025 5.91 3.929 8.935 2.02 3.025-1.91 3.929-5.91 2.02-8.935l-11.364-18.002c-1.91-3.025-5.91-3.929-8.935-2.02z" fill="#faefdc"/><g><path d="m420.009 218.932h-11.109c-15.764 0-29.675 7.939-37.947 20.037-5.043 7.374-7.994 16.293-7.994 25.9v25.448c0 25.37 20.567 45.937 45.941 45.937h11.109c21.505 0 39.556-14.775 44.559-34.721.903-3.591 1.381-7.346 1.381-11.215v-25.448c.001-25.371-20.566-45.938-45.94-45.938zm44.014 70.909c0 3.724-.461 7.339-1.33 10.796-4.816 19.201-22.192 33.422-42.892 33.422h-10.694c-24.425 0-44.222-19.797-44.222-44.218v-24.496c0-9.247 2.841-17.833 7.695-24.931 7.963-11.646 21.354-19.287 36.527-19.287h10.694c24.425 0 44.222 19.797 44.222 44.218z" fill="#dd5e26"/><path d="m419.801 221.127h-10.694c-15.174 0-28.565 7.642-36.527 19.287-4.854 7.098-7.695 15.684-7.695 24.931v24.496c0 24.421 19.797 44.218 44.222 44.218h10.694c20.7 0 38.076-14.222 42.892-33.422.869-3.456 1.33-7.071 1.33-10.796v-24.496c0-24.421-19.797-44.218-44.222-44.218zm39.643 67.583c0 3.38-.418 6.661-1.207 9.799-4.371 17.427-20.142 30.335-38.93 30.335h-9.706c-22.168 0-40.137-17.969-40.137-40.134v-22.234c0-8.393 2.578-16.186 6.984-22.628 7.227-10.57 19.381-17.506 33.153-17.506h9.706c22.168 0 40.137 17.969 40.137 40.134z" fill="#ea792e"/></g></g><g><path d="m432.387 274.812h-.59l2.751-4.063h-.004c1.212-1.647 1.93-3.681 1.93-5.885v-4.453c0-5.496-4.453-9.948-9.948-9.948h-1.221v-11.723c0-1.911-1.549-3.464-3.464-3.464h-3.556c-1.915 0-3.464 1.554-3.464 3.464v11.722h-5.741v-11.722c0-1.911-1.549-3.464-3.464-3.464h-3.556c-1.915 0-3.464 1.554-3.464 3.464v11.722h-13.579c-1.915 0-3.464 1.549-3.464 3.464v3.556c0 1.915 1.549 3.464 3.464 3.464h7.643v33.293h-7.643c-1.915 0-3.464 1.549-3.464 3.464v3.556c0 1.915 1.549 3.464 3.464 3.464h13.579v11.722c0 1.911 1.549 3.464 3.464 3.464h3.556c.174 0 .345-.012.511-.037 1.674-.249 2.953-1.691 2.953-3.427v-11.722h5.741v11.722c0 1.911 1.549 3.464 3.464 3.464h3.556c.174 0 .345-.012.511-.037 1.674-.249 2.953-1.691 2.953-3.427v-11.722h7.082c3.248 0 6.206-1.267 8.395-3.348 2.355-2.218 3.826-5.375 3.826-8.873v-5.471c0-6.748-5.475-12.219-12.221-12.219zm-23.307-13.865h12.794c2.318 0 4.2 1.882 4.2 4.204v.694c0 1.89-1.246 3.481-2.953 4.013-.395.12-.814.187-1.246.187h-12.795zm22.963 27.614c0 2.164-1.209 4.046-2.991 5.005-.802.428-1.716.673-2.688.673h-17.284v-12.295h17.284c3.136 0 5.678 2.542 5.678 5.678v.939z" fill="#dd5e26"/><path d="m429.43 279.165h-5.857c3.419 0 6.434-1.724 8.225-4.353.503-.731.906-1.533 1.192-2.388.345-1.005.532-2.085.532-3.207v-4.453c0-5.496-4.453-9.948-9.948-9.948h-1.221v-11.722c0-1.911-1.549-3.464-3.464-3.464h-3.56c-.17 0-.341.012-.507.037v15.149h-8.694v-11.722c0-1.911-1.554-3.464-3.464-3.464h-3.56c-.17 0-.341.012-.507.037v15.149h-16.537c-.17 0-.341.012-.507.037v2.629c0 1.915 1.549 3.464 3.464 3.464h7.643v37.646h-10.6c-.17 0-.341.012-.507.037v2.629c0 1.915 1.549 3.464 3.464 3.464h13.579v11.722c0 1.911 1.549 3.464 3.464 3.464h3.556c.174 0 .345-.012.511-.037v-15.149h8.694v11.722c0 1.911 1.549 3.464 3.464 3.464h3.556c.174 0 .345-.012.511-.037v-15.149h10.036c3.248 0 6.206-1.267 8.395-3.348.561-1.4.868-2.924.868-4.519v-5.471c-.001-6.748-5.471-12.219-12.221-12.219zm-23.303-18.218h15.747c2.318 0 4.2 1.882 4.2 4.204v.694c0 8.22-3.963 8.553-7.157 8.553h-12.79zm25.916 27.614c0 8.096-1.969 10.031-8.632 10.031h-17.284v-16.649h20.237c3.136 0 5.678 2.542 5.678 5.678v.94z" fill="#ea792e"/></g></g><g><g><g><path d="m308.143 346.813h-29.964c-17.275 0-32.52 8.7-41.586 21.958-5.526 8.081-8.76 17.856-8.76 28.383v27.889c0 27.803 22.539 50.341 50.346 50.341h29.964z" fill="#f39e22"/><g><path d="m227.832 404.25h53.083v13.698h-53.083z" fill="#ea792e"/><path d="m227.832 404.25h53.083v5.377h-53.083z" fill="#dd5e26"/></g><g><path d="m280.915 426.549v13.693h-50.744c-.854-2.682-1.481-5.461-1.868-8.321-.245-1.761-.396-3.553-.445-5.372z" fill="#ea792e"/><path d="m280.915 426.549v5.372h-52.611c-.245-1.761-.396-3.553-.445-5.372z" fill="#dd5e26"/></g><g><path d="m293.816 448.843v13.698h-49.227c-2.78-2.486-5.279-5.279-7.445-8.325-1.223-1.712-2.339-3.509-3.34-5.372h60.012z" fill="#ea792e"/><path d="m293.816 448.843v5.372h-56.672c-1.223-1.712-2.339-3.509-3.34-5.372z" fill="#dd5e26"/></g><g><path d="m302.417 471.142v4.243h-24.237c-7.209 0-14.058-1.512-20.257-4.243z" fill="#ea792e"/><path d="m302.417 471.142v4.243h-24.237c-7.209 0-14.058-1.512-20.257-4.243z" fill="#dd5e26"/></g><g><path d="m280.915 381.956v13.693h-53.061c.085-2.842.4-5.617.938-8.321.116-.587.24-1.17.382-1.752l.996-3.62z" fill="#ea792e"/><path d="m280.915 381.956v5.372h-52.122c.116-.587.24-1.17.382-1.752l.996-3.62z" fill="#dd5e26"/></g><g><path d="m294.301 359.657v13.698h-60.501c.849-1.583 1.783-3.113 2.793-4.585.885-1.29 1.828-2.539 2.824-3.74 1.588-1.917 3.318-3.713 5.172-5.372h49.712z" fill="#ea792e"/><path d="m294.301 359.657v5.372h-54.884c1.588-1.917 3.318-3.713 5.172-5.372z" fill="#dd5e26"/></g><g><path d="m304.654 348.877v2.179h-46.732c6.195-2.731 13.048-4.243 20.257-4.243h12.172c4.969 0 9.772.721 14.303 2.064z" fill="#ea792e"/></g></g><path d="m361.449 397.155v27.889c0 4.24-.525 8.356-1.514 12.291-5.483 21.859-25.265 38.051-48.832 38.051h-12.175c-27.807 0-50.346-22.539-50.346-50.341v-27.889c0-10.528 3.234-20.302 8.76-28.383 9.065-13.258 24.311-21.958 41.586-21.958h12.175c27.807-.002 50.346 22.537 50.346 50.34z" fill="#f9c744"/><path d="m361.449 397.155v27.889c0 4.24-.525 8.356-1.514 12.291-7.431 2.537-15.318 3.901-23.489 3.901-39.048 0-71.62-31.118-79.103-72.463 9.065-13.258 24.311-21.958 41.586-21.958h12.175c27.806-.002 50.345 22.537 50.345 50.34z" fill="#fad98f"/><path d="m325.274 371.229c-3.025 1.91-3.929 5.91-2.02 8.935l11.364 18.002c1.91 3.025 5.91 3.929 8.935 2.02 3.025-1.91 3.929-5.91 2.02-8.935l-11.364-18.002c-1.91-3.025-5.91-3.93-8.935-2.02z" fill="#faefdc"/><g><path d="m310.571 352.438h-11.109c-15.764 0-29.675 7.939-37.947 20.037-5.043 7.374-7.994 16.293-7.994 25.9v25.449c0 25.37 20.567 45.937 45.941 45.937h11.109c21.505 0 39.556-14.775 44.559-34.721.903-3.591 1.381-7.346 1.381-11.215v-25.449c0-25.371-20.566-45.938-45.94-45.938zm44.014 70.909c0 3.724-.461 7.339-1.33 10.796-4.816 19.201-22.192 33.422-42.892 33.422h-10.694c-24.425 0-44.222-19.797-44.222-44.218v-24.496c0-9.247 2.841-17.833 7.695-24.931 7.963-11.646 21.354-19.287 36.527-19.287h10.694c24.425 0 44.222 19.797 44.222 44.218z" fill="#dd5e26"/><path d="m310.363 354.633h-10.694c-15.174 0-28.565 7.642-36.527 19.287-4.854 7.098-7.695 15.684-7.695 24.931v24.496c0 24.421 19.797 44.218 44.222 44.218h10.694c20.7 0 38.076-14.222 42.892-33.422.869-3.456 1.33-7.071 1.33-10.796v-24.496c0-24.421-19.798-44.218-44.222-44.218zm39.643 67.583c0 3.38-.418 6.661-1.207 9.799-4.371 17.427-20.142 30.335-38.93 30.335h-9.706c-22.168 0-40.137-17.969-40.137-40.134v-22.234c0-8.393 2.578-16.186 6.984-22.628 7.227-10.57 19.381-17.506 33.153-17.506h9.706c22.168 0 40.137 17.969 40.137 40.134z" fill="#ea792e"/></g></g><g><path d="m326.535 415.244-1.45.849-16.17 9.442c-2.41 1.41-5.39 1.41-7.801 0l-17.616-10.291c-3.3-1.926-4.403-6.168-2.464-9.455l19.217-32.568 1.548-2.624c1.445-2.446 4.985-2.446 6.431 0l20.764 35.191c1.94 3.287.837 7.53-2.459 9.456z" fill="#dd5e26"/><path d="m329.292 422.422-2.553 3.642-1.232 1.757-17.433 24.869c-1.085 1.543-3.042 1.961-4.603 1.259-.583-.262-1.107-.685-1.512-1.259l-17.433-24.869-3.785-5.399c-.738-1.054.485-2.366 1.588-1.703l18.705 11.238c2.45 1.472 5.515 1.472 7.965 0l18.705-11.238c1.104-.663 2.327.649 1.588 1.703z" fill="#dd5e26"/><g fill="#ea792e"><path d="m325.085 416.093-16.17 9.442c-2.41 1.41-5.39 1.41-7.801 0l-17.616-10.291c-3.3-1.926-4.403-6.168-2.464-9.455l19.217-32.568c1.348-.111 2.748.498 3.531 1.823l20.764 35.191c1.091 1.847 1.22 3.99.539 5.858z"/><path d="m308.999 437.738c-2.451 1.472-5.514 1.472-7.965 0l-16.508-9.917 17.433 24.869c.405.574.93.996 1.512 1.259l12.792-18.248c.646-.921-.425-2.07-1.39-1.491z"/></g></g></g><g><g><g><path d="m119.209 207.842h-29.964c-17.275 0-32.52 8.7-41.586 21.958-5.526 8.081-8.76 17.856-8.76 28.383v27.889c0 27.803 22.539 50.341 50.346 50.341h29.964z" fill="#f39e22"/><g><path d="m38.899 265.278h53.083v13.698h-53.083z" fill="#ea792e"/><path d="m38.899 265.278h53.083v5.377h-53.083z" fill="#dd5e26"/></g><g><path d="m91.981 287.577v13.693h-50.743c-.854-2.682-1.481-5.461-1.868-8.321-.245-1.761-.396-3.553-.445-5.372z" fill="#ea792e"/><path d="m91.981 287.577v5.372h-52.611c-.245-1.761-.396-3.553-.445-5.372z" fill="#dd5e26"/></g><g><path d="m104.883 309.871v13.698h-49.227c-2.78-2.486-5.279-5.279-7.445-8.325-1.223-1.712-2.339-3.509-3.34-5.372h60.012z" fill="#ea792e"/><path d="m104.883 309.871v5.372h-56.672c-1.223-1.712-2.339-3.509-3.34-5.372z" fill="#dd5e26"/></g><g><path d="m113.484 332.17v4.243h-24.238c-7.209 0-14.058-1.512-20.257-4.243z" fill="#ea792e"/><path d="m113.484 332.17v4.243h-24.238c-7.209 0-14.058-1.512-20.257-4.243z" fill="#dd5e26"/></g><g><path d="m91.981 242.984v13.693h-53.06c.084-2.842.4-5.617.938-8.321.116-.587.24-1.17.382-1.752l.996-3.62z" fill="#ea792e"/><path d="m91.981 242.984v5.372h-52.122c.116-.587.24-1.17.382-1.752l.996-3.62z" fill="#dd5e26"/></g><g><path d="m105.368 220.685v13.698h-60.501c.849-1.583 1.783-3.113 2.793-4.585.885-1.29 1.828-2.539 2.824-3.74 1.588-1.917 3.318-3.713 5.172-5.372h49.712z" fill="#ea792e"/><path d="m105.368 220.685v5.372h-54.884c1.588-1.917 3.318-3.713 5.172-5.372z" fill="#dd5e26"/></g><g><path d="m115.721 209.905v2.179h-46.732c6.195-2.731 13.048-4.243 20.257-4.243h12.172c4.968.001 9.771.721 14.303 2.064z" fill="#ea792e"/></g></g><path d="m172.515 258.183v27.889c0 4.24-.525 8.356-1.514 12.291-5.483 21.859-25.265 38.051-48.832 38.051h-12.175c-27.807 0-50.346-22.539-50.346-50.341v-27.889c0-10.528 3.234-20.303 8.76-28.383 9.065-13.258 24.311-21.958 41.586-21.958h12.175c27.808-.001 50.346 22.538 50.346 50.34z" fill="#f9c744"/><path d="m172.515 258.183v27.889c0 4.24-.525 8.356-1.514 12.291-7.431 2.537-15.318 3.901-23.489 3.901-39.048 0-71.62-31.118-79.103-72.463 9.065-13.258 24.311-21.958 41.586-21.958h12.175c27.807-.001 50.345 22.538 50.345 50.34z" fill="#fad98f"/><path d="m136.341 232.257c-3.025 1.91-3.929 5.91-2.02 8.935l11.364 18.002c1.91 3.025 5.91 3.929 8.935 2.02 3.025-1.91 3.929-5.91 2.02-8.935l-11.364-18.002c-1.91-3.025-5.91-3.929-8.935-2.02z" fill="#faefdc"/><g><path d="m121.637 213.466h-11.109c-15.764 0-29.675 7.939-37.947 20.037-5.043 7.374-7.994 16.293-7.994 25.9v25.448c0 25.37 20.567 45.937 45.941 45.937h11.109c21.505 0 39.556-14.775 44.559-34.721.903-3.591 1.381-7.346 1.381-11.215v-25.448c.001-25.371-20.566-45.938-45.94-45.938zm44.014 70.91c0 3.725-.461 7.339-1.33 10.796-4.816 19.201-22.192 33.422-42.892 33.422h-10.694c-24.425 0-44.222-19.797-44.222-44.218v-24.496c0-9.247 2.841-17.833 7.695-24.931 7.963-11.646 21.354-19.287 36.527-19.287h10.694c24.425 0 44.222 19.797 44.222 44.218z" fill="#dd5e26"/><path d="m121.429 215.661h-10.694c-15.174 0-28.565 7.642-36.527 19.287-4.854 7.098-7.695 15.684-7.695 24.931v24.496c0 24.421 19.797 44.218 44.222 44.218h10.694c20.7 0 38.076-14.222 42.892-33.422.869-3.456 1.33-7.071 1.33-10.796v-24.496c0-24.421-19.797-44.218-44.222-44.218zm39.643 67.583c0 3.38-.418 6.661-1.207 9.798-4.371 17.427-20.142 30.335-38.93 30.335h-9.706c-22.168 0-40.137-17.969-40.137-40.134v-22.234c0-8.393 2.578-16.186 6.984-22.628 7.227-10.57 19.381-17.506 33.153-17.506h9.706c22.168 0 40.137 17.969 40.137 40.134z" fill="#ea792e"/></g></g><g><path d="m150.33 265.488-3.931 13.28c-1.205 4.074-3.98 7.756-7.476 10.384-3.344 2.508-7.338 4.056-11.238 4.056h-39.506c-1.654 0-2.842-1.592-2.375-3.175l.236-.792.792-2.677c.311-1.049 1.276-1.77 2.37-1.77h35.494c2.526 0 4.919-.707 6.969-1.961 2.762-1.686 4.892-4.358 5.857-7.618l3.447-11.656c.605-2.046-.925-4.096-3.055-4.096h-39.75c-1.65 0-2.837-1.588-2.37-3.175l.236-.792.792-2.673c.311-1.049 1.276-1.774 2.37-1.774h40.973c7.972-.002 12.522 6.465 10.165 14.439z" fill="#dd5e26"/><path d="m145.883 269.935-3.931 13.28c-.627 2.117-1.677 4.127-3.029 5.937-3.344 2.508-7.338 4.056-11.238 4.056h-39.506c-1.654 0-2.842-1.592-2.375-3.175l.236-.792h34.209c4.741 0 9.032-2.499 11.416-6.409 2.762-1.686 4.892-4.358 5.857-7.618l3.447-11.656c.605-2.046-.925-4.096-3.055-4.096h-39.75c-1.65 0-2.837-1.588-2.37-3.175l.236-.792h39.688c7.972-.001 12.522 6.466 10.165 14.44z" fill="#ea792e"/><path d="m113.52 269.899-1.374 5.132c-.329 1.236-1.45 2.095-2.726 2.095h-26.751c-1.886 0-3.242-1.815-2.708-3.625l.801-2.708.721-2.428c.356-1.196 1.459-2.019 2.708-2.019h26.604c1.853 0 3.205 1.757 2.725 3.553z" fill="#dd5e26"/><path d="m109.072 274.346-.743 2.78h-25.66c-1.886 0-3.242-1.815-2.708-3.625l.801-2.708h25.585c1.854 0 3.206 1.757 2.725 3.553z" fill="#ea792e"/></g></g></g></g></svg>