<?xml version="1.0" encoding="iso-8859-1"?>
<!-- Generator: Adobe Illustrator 19.0.0, SVG Export Plug-In . SVG Version: 6.00 Build 0)  -->
<svg version="1.1" id="Capa_1" xmlns="http://www.w3.org/2000/svg" xmlns:xlink="http://www.w3.org/1999/xlink" x="0px" y="0px"
	 viewBox="0 0 384 384" style="enable-background:new 0 0 384 384;" xml:space="preserve">
<g>
	<g>
		<path fill='red' d="M373.333,128H352c-5.896,0-10.667,4.771-10.667,10.667v172.5L33.292,3.124c-2.043-2.042-4.707-3.082-7.383-3.122
			c-2.783-0.042-5.579,1-7.703,3.122L3.125,18.206c-2.01,2.009-3.051,4.621-3.121,7.255c-0.076,2.824,0.965,5.674,3.121,7.829
			l308.042,308.043h-172.5c-5.896,0-10.667,4.771-10.667,10.667v21.333c0,5.896,4.771,10.667,10.667,10.667h234.667
			c5.896,0,10.667-4.771,10.667-10.667V138.667C384,132.771,379.229,128,373.333,128z"/>
	</g>
</g>
<g>
</g>
<g>
</g>
<g>
</g>
<g>
</g>
<g>
</g>
<g>
</g>
<g>
</g>
<g>
</g>
<g>
</g>
<g>
</g>
<g>
</g>
<g>
</g>
<g>
</g>
<g>
</g>
<g>
</g>
</svg>
